<svg xmlns="http://www.w3.org/2000/svg" width="512" height="130.623" viewBox="0 0 512 130.623">
  <g id="XMLID_1_" transform="translate(0 -190.627)">
    <path id="XMLID_51_" d="M341.43,204.26c-1.82,7.01-5.05,7.29-8.98,7.29h-7.72c-6.45,0-7.01-2.81-5.75-7.29h7.72c-.7,2.38-1.68,4.49,2.38,4.49,2.67,0,3.65-.7,4.63-4.35Zm66.91,36.19-5.89-7.57-.56,1.96c-1.54,5.75-1.4,8.14,2.1,8.14A4.337,4.337,0,0,0,408.34,240.45Zm-4.49-11.08,5.89,7.57.56-2.1c1.12-4.63,2.1-7.86-2.1-7.86A4.98,4.98,0,0,0,403.85,229.37Zm38.29-3.78,1.54-6.59H421.94l-8.28,32.12h-7.43l1.96-7.01c-2.1,2.24-5.75,2.95-8.84,2.95-8,0-6.73-7.72-5.47-12.48,1.26-4.63,3.65-11.36,11.5-11.36,2.81,0,5.89.7,7.01,2.67l1.68-6.87H396.26l1.12-3.51h52.46l-6.45-8,5.33-3.93,6.87,11.92h2.1l-5.47-14.45,6.45-2.95,3.79,17.39H512L510.88,219h-4.07l-8.28,32.12H491.1L499.38,219h-6.31l-2.52,8.14H480.3c-3.37,0-4.21,4.07-5.61,9.96-1.68,7.15-2.95,11.36,1.68,11.36a12.482,12.482,0,0,0,1.54-.28c-.42-4.35,1.96-9.54,7.15-9.54,4.77,0,4.77,2.52,4.07,4.91a7.5,7.5,0,0,1-5.75,5.89c1.68,3.09,5.61,3.37,5.61,3.37l-7.86,4.35a11.9,11.9,0,0,1-3.23-6.31,21.479,21.479,0,0,1-5.75.7c-9.54,0-7.86-9.26-6.31-15.57,1.68-6.45,4.49-12.2,12.2-12.2,2.81,0,6.03.14,6.03.14l1.4-4.91H464.71l-8.28,32.12H449l8.28-32.12h-5.89l-2.95,11.36h-7.43c.56-2.52-.56-3.37-3.65-3.37-2.81,0-3.65.42-4.91,4.49-.84,3.51.14,4.21,3.65,4.07H442c4.35,0,5.05,1.68,3.51,8-1.96,7.29-5.47,7.72-9.82,7.72h-8.56c-7.57,0-7.86-3.37-6.17-8.84h8.56c-.84,2.95-2.52,5.75,2.38,5.75,2.95,0,3.93-.7,5.05-4.91.98-2.95,1.12-4.49-3.37-4.49h-5.89c-5.05,0-4.21-4.21-3.37-7.86,1.82-6.59,3.09-7.43,10.66-7.43C439.48,223.34,441.58,223.9,442.14,225.59ZM238.61,243.12c2.67,0,3.79-2.38,5.19-8.14,1.12-4.63,2.1-7.72-1.12-7.72-3.37,0-4.07,3.23-5.33,7.72C235.94,240.59,235.8,243.12,238.61,243.12Zm1.4,7.86,1.96-7.01Zm-25.53-10.81-5.89-7.57c-.14.7-.42,1.4-.56,2.24-1.54,5.75-1.4,8.14,2.1,8.14A4.374,4.374,0,0,0,214.48,240.17Zm-4.35-11.08,5.75,7.43.42-1.68c1.12-4.63,2.1-7.86-2.1-7.86A4.586,4.586,0,0,0,210.13,229.09Zm5.61-13.6-6.45-8,5.33-3.93,6.87,11.92h2.1l-5.47-14.45,6.45-2.95,3.79,17.39h42.92l-1.12,3.51H255.3l-1.82,7.43a9.288,9.288,0,0,1,7.43-3.09c8,0,6.31,7.57,5.05,12.34-1.12,4.63-3.23,11.36-10.94,11.36a6.1,6.1,0,0,1-3.79-.98l.56-2.1.7.14c3.37,0,4.21-4.07,5.47-8.56,1.54-5.75,1.54-8.14-1.26-8.14-2.38,0-3.65,1.68-5.05,6.17l-4.35,17.53h-7.29l1.96-7.01a9.354,9.354,0,0,1-7.43,2.95c-8,0-6.17-8-5.05-12.76,1.12-4.63,3.09-11.08,10.94-11.08,2.81,0,4.49.7,5.61,2.67l1.68-6.87H227.94l-8.28,32.12h-7.43l1.96-7.01c-2.1,2.24-5.75,2.95-8.84,2.95-8,0-6.45-8.14-5.19-12.91,1.26-4.63,3.37-10.94,11.22-10.94,2.81,0,5.89.7,7.01,2.67l1.68-6.87H202.11l1.12-3.51h12.51Zm75.19,35.49H279.99l.98-3.65h9.54c2.38,0,6.03-1.4,7.29-6.17.7-3.09-.56-6.59-4.91-6.59h-7.15l.98-3.93h8.42c2.95,0,5.19-2.52,6.03-5.89.7-2.52.56-5.89-3.93-5.89h-8.98l.98-3.65h10.8c5.47,0,11.36,2.38,9.82,8.84-1.12,4.91-3.65,7.29-9.4,8.28,5.89.84,7.15,4.77,5.89,9.54C303.97,250.55,294.72,250.98,290.93,250.98Zm66.49-31.99h-5.89l-4.49,17.53c-.56,2.1-.42,3.51,1.96,3.51,2.52,0,3.37-2.38,3.93-4.35Zm-43.77-3.5h65.93L378.46,219H365.13l-2.24,8.42a10.393,10.393,0,0,1,7.43-2.95c3.65,0,6.45,1.82,5.61,5.05l-4.77,18.38h-7.72l4.07-15.85c.56-2.1.56-3.65-1.96-3.65-1.82,0-2.95,1.54-3.79,3.09l-1.96,7.43c-.42,1.54-2.52,10.52-2.81,12.06h-8l2.38-9.82a9.725,9.725,0,0,1-7.43,2.81c-3.65,0-6.45-1.82-5.61-5.05l5.19-20.06h-6.17l-8.28,32.12h-7.43l8.28-32.12h-5.89l-8.28,32.12h-7.43l4.35-16.83h-6.03l.98-3.65h5.89l2.95-11.64h-4.63Zm-82.34-8.84h7.01l-1.54,5.89h-7.01Zm106.47,42.08h7.01l-1.54,5.89h-7.01Zm89.07,5.75h7.01l-1.54,5.89h-7.01l1.54-5.89" fill="#f15a29"/>
    <path id="XMLID_55_" d="M203.68,298.67h5.05c4.35,0,5.19,2.24,4.49,5.89-1.26,5.75-5.33,5.75-7.15,5.75H201.3Zm3.5-16.83h5.33c2.95,0,4.49,2.24,3.79,5.19-.84,3.93-3.79,5.19-5.61,5.19h-5.75Zm-.84,34.78c3.65,0,12.76-.42,15.01-10.8,1.26-5.61.42-9.54-5.47-10.38v-.14c4.91-.84,7.86-4.35,8.98-8.98,1.82-8.7-3.09-10.66-9.68-10.66H199.89l-8.7,41.1h15.15" fill="#f15a29"/>
    <path id="XMLID_58_" d="M239.87,302.74c-.7,3.09-1.26,9.54-6.03,9.54-2.67,0-2.38-2.52-1.96-4.49C233,302.6,235.94,302.88,239.87,302.74Zm9.12-5.76c1.12-5.19.7-9.68-9.4-9.68a15.194,15.194,0,0,0-7.86,1.82c-2.1,1.26-3.65,3.51-4.49,7.01h7.86c.56-2.24,1.12-4.35,3.93-4.35,2.95,0,2.81,1.82,2.38,4.21l-.42,2.24c-7.43-.14-14.87.28-16.83,9.82-1.12,5.05.14,9.12,5.61,9.12a9.955,9.955,0,0,0,8.42-4.35h.14l-.42,3.79h7.43c.14-1.82.42-3.65.7-5.33l2.95-14.3" fill="#f15a29"/>
    <path id="XMLID_59_" d="M263.15,287.87h-8l-6.03,28.76h8l4.21-19.78c.56-2.52,1.4-4.49,3.93-4.49s2.52,1.96,2.1,4.49l-4.21,19.78h8l4.91-23c.84-3.93-1.96-6.31-5.89-6.31a8.863,8.863,0,0,0-7.57,3.51h-.14l.69-2.96" fill="#f15a29"/>
    <path id="XMLID_60_" d="M282.93,316.62l3.37-15.71h.14l4.07,15.71h9.12l-5.76-15.99,10.95-12.76H296.4l-9.82,12.06h0l5.19-24.41h-8.14l-8.69,41.1h7.99" fill="#f15a29"/>
    <path id="XMLID_63_" d="M320.95,311.99c-2.95,0-3.23-1.82-1.4-10.66,1.26-6.03,2.24-8.98,5.61-8.98s3.09,2.95,1.82,8.98C325.01,310.17,323.89,311.99,320.95,311.99Zm-1.13,5.19c10.38,0,13.05-6.31,15.01-15.29,1.68-7.86,1.96-14.59-8.56-14.59s-13.19,6.73-14.87,14.59c-1.96,8.98-1.96,15.29,8.42,15.29" fill="#f15a29"/>
    <path id="XMLID_64_" d="M356.02,275.38c-.98,0-1.82-.14-2.81-.14-9.82,0-9.96,4.35-11.78,12.62h-3.65l-.98,4.91h3.65l-5.05,23.71h8l5.05-23.71h3.79l.98-4.91h-3.79l.7-3.51c.56-2.95,1.54-4.21,4.77-3.93l1.12-5.04" fill="#f15a29"/>
    <path id="XMLID_68_" d="M371.45,298.67h5.05c4.35,0,5.19,2.24,4.49,5.89-1.26,5.75-5.33,5.75-7.15,5.75h-4.77Zm3.64-16.83h5.33c2.95,0,4.49,2.24,3.79,5.19-.84,3.93-3.79,5.19-5.61,5.19h-5.75Zm-.84,34.78c3.65,0,12.76-.42,15.01-10.8,1.26-5.61.42-9.54-5.47-10.38v-.14c4.91-.84,7.86-4.35,8.98-8.98,1.82-8.7-3.09-10.66-9.68-10.66H367.8l-8.7,41.1h15.15" fill="#f15a29"/>
    <path id="XMLID_71_" d="M407.78,302.74c-.7,3.09-1.26,9.54-6.03,9.54-2.67,0-2.38-2.52-1.96-4.49C400.9,302.6,403.71,302.88,407.78,302.74Zm9.11-5.76c1.12-5.19.7-9.68-9.4-9.68a15.194,15.194,0,0,0-7.86,1.82c-2.1,1.26-3.65,3.51-4.49,7.01H403c.42-2.24,1.12-4.35,3.93-4.35,2.95,0,2.81,1.82,2.38,4.21l-.42,2.24c-7.43-.14-14.87.28-16.83,9.82-1.12,5.05.14,9.12,5.61,9.12a9.955,9.955,0,0,0,8.42-4.35h.14l-.42,3.79h7.43c.28-1.82.42-3.65.7-5.33l2.95-14.3" fill="#f15a29"/>
    <path id="XMLID_72_" d="M423.07,287.87l-6.03,28.76h8l3.37-15.57c.56-2.81,1.54-7.01,8.56-6.45l1.54-7.15a9.486,9.486,0,0,0-8.42,4.21h-.14l.84-3.65h-7.72" fill="#f15a29"/>
    <path id="XMLID_75_" d="M445.51,311.99c-2.95,0-3.37-1.82-1.4-10.66,1.26-6.03,2.24-8.98,5.61-8.98s3.09,2.95,1.82,8.98C449.58,310.17,448.46,311.99,445.51,311.99Zm-1.12,5.19c10.38,0,13.05-6.31,15.01-15.29,1.68-7.86,1.96-14.59-8.56-14.59s-13.19,6.73-14.87,14.59c-1.96,8.98-1.96,15.29,8.42,15.29" fill="#f15a29"/>
    <path id="XMLID_78_" d="M471.18,312.27c-2.95,0-2.81-2.95-1.26-10.24,1.26-5.75,1.96-9.68,5.47-9.68,3.23,0,2.38,3.93,1.12,9.68C474.97,309.19,473.85,312.27,471.18,312.27Zm10.24,4.35,8.7-41.1h-8l-3.23,15.01h-.14c-1.12-2.38-2.95-3.37-5.89-3.37-8.14,0-9.68,8.98-10.94,14.73-1.26,5.89-3.51,15.15,4.77,15.15a8.629,8.629,0,0,0,7.57-3.79h.14l-.7,3.23h7.72" fill="#f15a29"/>
    <path id="XMLID_81_" d="M502.46,302.74c-.7,3.09-1.26,9.54-6.03,9.54-2.67,0-2.38-2.52-1.96-4.49C495.45,302.6,498.39,302.88,502.46,302.74Zm8.98-5.76c1.12-5.19.7-9.68-9.4-9.68a15.194,15.194,0,0,0-7.86,1.82c-2.1,1.26-3.65,3.51-4.49,7.01h7.86c.42-2.24,1.12-4.35,3.93-4.35,2.95,0,2.81,1.82,2.38,4.21l-.42,2.24c-7.43-.14-14.87.28-16.83,9.82-1.12,5.05.14,9.12,5.61,9.12a9.955,9.955,0,0,0,8.42-4.35h.14l-.42,3.79h7.43a32.609,32.609,0,0,1,.7-5.33l2.95-14.3" fill="#f15a29"/>
    <path id="XMLID_82_" d="M85.99,321.25H23.15v-1.68l46.29-1.82c8.84-.28,17.25-.84,25.53-3.65,16.97-5.61,30.44-17.25,34.37-31.42,4.21-15.29-5.47-30.16-23.99-31.42,15.57-4.63,28.9-14.45,32.54-27.21,4.63-16.55-3.79-24.83-17.81-27.91,23.43-.42,41.66,7.43,35.49,29.88-3.51,12.76-17.11,22.44-32.68,26.65a26.09,26.09,0,0,1,23.43,33.81c-5.05,15.71-17.67,25.53-34.65,31.14-8.29,2.93-16.84,3.35-25.68,3.63" fill="#f15a29"/>
    <path id="XMLID_83_" d="M53.02,313.4l-29.74,1.4a6.816,6.816,0,0,0-.14-1.68l75.05-21.6v-1.26L22.16,308.5c-.28-.7-.28-.84-.56-1.54l79.82-44.33-.56-1.26-81.64,41.8c-.56-.7-.42-.7-.98-1.4l94.97-89.49-.84-.98L14.74,298.69c-.42-.28-.7-.56-1.12-.84l69.3-101.14-1.26-.28L9.4,296l-1.26-.42,39.7-97.77-.98-.14L2.1,294.74H0L28.76,190.66l53.87.14c25.53-1.4,45.59,5.47,39,29.18-3.51,12.76-16.83,22.58-32.4,26.93l-.14.28c18.38,1.26,28.76,16.13,24.55,31.42-3.93,14.31-18.1,25.39-35.07,31-8.29,2.95-16.71,3.51-25.55,3.79" fill="#f15a29"/>
  </g>
</svg>
