<svg xmlns="http://www.w3.org/2000/svg" width="151.843" height="91.099" viewBox="0 0 151.843 91.099">
  <g id="Icon_ionic-ios-done-all" data-name="Icon ionic-ios-done-all" transform="translate(-6.746 -11.25)">
    <path id="Path_102" data-name="Path 102" d="M59.79,26.467a2.221,2.221,0,0,0,0-3.084L50.4,13.419a2.047,2.047,0,0,0-1.518-.664h0a2.047,2.047,0,0,0-1.518.664L15.806,46.205,28.332,59.063Z" transform="translate(52.076 8.649)" fill="#ef2d56"/>
    <path id="Path_103" data-name="Path 103" d="M19.961,18.362a2.067,2.067,0,0,0-3.037,0L7.387,28.184a2.234,2.234,0,0,0,0,3.132L37.374,62.156a9.237,9.237,0,0,0,6.263,3.132c2.847,0,5.267-2.135,6.216-3.037L49.9,62.2l6.358-6.548Z" transform="translate(0 37.062)" fill="#ef2d56"/>
    <path id="Path_104" data-name="Path 104" d="M126.945,21.878l-9.395-9.964a2.047,2.047,0,0,0-1.518-.664h0a2.047,2.047,0,0,0-1.518.664L49.132,79.622,25.361,55.139a2.067,2.067,0,0,0-3.037,0L12.787,64.96a2.234,2.234,0,0,0,0,3.132L42.774,98.933a9.237,9.237,0,0,0,6.263,3.132c2.847,0,5.267-2.135,6.216-3.037l.047-.047,71.645-74.065A2.208,2.208,0,0,0,126.945,21.878Z" transform="translate(31.04)" fill="#ef2d56"/>
  </g>
</svg>
