<svg xmlns="http://www.w3.org/2000/svg" width="121.046" height="107.596" viewBox="0 0 121.046 107.596">
  <path id="Icon_awesome-id-card-alt" data-name="Icon awesome-id-card-alt" d="M110.959,13.45H80.7V33.624H40.349V13.45H10.087A10.09,10.09,0,0,0,0,23.537V97.509A10.09,10.09,0,0,0,10.087,107.6H110.959a10.09,10.09,0,0,0,10.087-10.087V23.537A10.09,10.09,0,0,0,110.959,13.45ZM60.523,47.073a13.45,13.45,0,1,1-13.45,13.45A13.462,13.462,0,0,1,60.523,47.073ZM80.13,94.147H40.916a3.317,3.317,0,0,1-3.278-4.161,13.456,13.456,0,0,1,12.8-9.289h1.723a21.646,21.646,0,0,0,16.728,0H70.61a13.468,13.468,0,0,1,12.8,9.289,3.317,3.317,0,0,1-3.278,4.161ZM73.972,6.725A6.718,6.718,0,0,0,67.248,0H53.8a6.718,6.718,0,0,0-6.725,6.725V26.9h26.9Z" fill="#ef2d56"/>
</svg>
