<svg xmlns="http://www.w3.org/2000/svg" width="71.537" height="100.152" viewBox="0 0 71.537 100.152">
  <path id="Icon_awesome-rupee-sign" data-name="Icon awesome-rupee-sign" d="M68.855,16.557a2.683,2.683,0,0,0,2.683-2.683V4.933A2.683,2.683,0,0,0,68.855,2.25H2.683A2.683,2.683,0,0,0,0,4.933v10a2.683,2.683,0,0,0,2.683,2.683H21.747c6.1,0,10.789,2.226,13.63,6.092H2.683A2.683,2.683,0,0,0,0,26.394v8.942a2.683,2.683,0,0,0,2.683,2.683H38.173c-1.39,8.067-7.369,13.107-16.712,13.107H2.683A2.683,2.683,0,0,0,0,53.809V65.66a2.683,2.683,0,0,0,.863,1.971l36.9,34.06a2.683,2.683,0,0,0,1.82.711H58.038a2.683,2.683,0,0,0,1.82-4.654L26.127,66.613c17.1-.523,29.318-11.937,30.922-28.594H68.855a2.683,2.683,0,0,0,2.683-2.683V26.394a2.683,2.683,0,0,0-2.683-2.683H55.734a30.622,30.622,0,0,0-3.186-7.154Z" transform="translate(0 -2.25)" fill="#ef2d56"/>
</svg>
