<svg xmlns="http://www.w3.org/2000/svg" width="321.144" height="86.019" viewBox="0 0 321.144 86.019">
  <g id="Group_11" data-name="Group 11" transform="translate(-546 -605.183)">
    <g id="Group_10" data-name="Group 10">
      <g id="Group_4" data-name="Group 4" transform="translate(546 612.647)">
        <g id="Group_3" data-name="Group 3" transform="translate(0 0)">
          <g id="Group_2" data-name="Group 2">
            <g id="Group_1" data-name="Group 1">
              <path id="Path_1" data-name="Path 1" d="M23.066,23.066h64.96L91.091,20H20V91.091l3.066-3.066Z" transform="translate(-20 -20)" fill="#ff834f"/>
              <path id="Path_2" data-name="Path 2" d="M33.6,92.55l3.021-3.021V36.521H89.629L92.65,33.5H33.6Z" transform="translate(-27.557 -27.502)" fill="#ff834f"/>
              <path id="Path_3" data-name="Path 3" d="M40.4,93.363l.044-.044V40.444H93.319l.044-.044H40.4Z" transform="translate(-31.336 -31.336)" fill="#ff834f"/>
              <path id="Path_4" data-name="Path 4" d="M47.3,94.076l3.021-3.021V50.221H91.154L94.176,47.2H47.3Z" transform="translate(-35.17 -35.114)" fill="#ff834f"/>
              <path id="Path_5" data-name="Path 5" d="M47.1,94.109l.044-.044V47.144H94.02l.044-.044H47.1V94.109Z" transform="translate(-35.059 -35.059)" fill="#ff834f"/>
              <path id="Path_6" data-name="Path 6" d="M60.7,95.568l3.11-3.11V63.71H92.558l3.11-3.11H60.7Z" transform="translate(-42.616 -42.561)" fill="#ff834f"/>
              <path id="Path_7" data-name="Path 7" d="M74.2,97.127l3.11-3.11V77.31H94.017l3.11-3.11H74.2Z" transform="translate(-50.118 -50.118)" fill="#ff834f"/>
              <path id="Path_8" data-name="Path 8" d="M87.7,98.63l3.155-3.155V90.855h4.621L98.63,87.7H87.7Z" transform="translate(-57.62 -57.62)" fill="#ff834f"/>
              <path id="Path_9" data-name="Path 9" d="M20.133,91.147h4.221L91.091,24.41V20.1L20,91.147Z" transform="translate(-20 -20.056)" fill="#ff834f"/>
              <path id="Path_10" data-name="Path 10" d="M43.81,101.927,101.927,43.81V39.5L39.5,101.927Z" transform="translate(-30.836 -30.836)" fill="#ff834f"/>
              <path id="Path_11" data-name="Path 11" d="M62.31,112.207l49.9-49.9V58L58,112.207Z" transform="translate(-41.116 -41.116)" fill="#ff834f"/>
              <path id="Path_12" data-name="Path 12" d="M80.81,122.487,122.487,80.81V76.5L76.5,122.487Z" transform="translate(-51.396 -51.396)" fill="#ff834f"/>
              <path id="Path_13" data-name="Path 13" d="M99.31,132.767,132.767,99.31V95L95,132.767Z" transform="translate(-61.676 -61.676)" fill="#ff834f"/>
              <path id="Path_14" data-name="Path 14" d="M117.754,143.047l25.237-25.237V113.5L113.4,143.047Z" transform="translate(-71.901 -71.956)" fill="#ff834f"/>
              <path id="Path_15" data-name="Path 15" d="M136.21,153.327l17.017-17.017V132L131.9,153.327Z" transform="translate(-82.181 -82.236)" fill="#ff834f"/>
              <path id="Path_16" data-name="Path 16" d="M154.71,163.607l8.8-8.8V150.5L150.4,163.607Z" transform="translate(-92.461 -92.516)" fill="#ff834f"/>
              <path id="Path_17" data-name="Path 17" d="M173.832,173.832V168.9l-4.932,4.932Z" transform="translate(-102.741 -102.741)" fill="#ff834f"/>
            </g>
          </g>
        </g>
      </g>
      <g id="Group_7" data-name="Group 7" transform="translate(645.171 629.019)">
        <g id="Group_6" data-name="Group 6" transform="translate(0 0)">
          <g id="Group_5" data-name="Group 5">
            <path id="id-01ff47e4-0758-405d-9840-efd06704c234D6z1nYkh7" d="M11.655-20v1.109h6.656V-13.1H11.848V6.48H4.323V-13.1h-4v-5.788h4v-1.158a9.467,9.467,0,0,1,2.629-7.042q2.629-2.6,7.4-2.6h0a13.81,13.81,0,0,1,3.208.362A7.8,7.8,0,0,1,20.1-28.3h0l-1.978,5.45a5.146,5.146,0,0,0-3.039-.916h0q-3.425,0-3.425,3.762ZM25.932,6.48V-19.47h7.525V6.48Zm3.762-29.567a4.772,4.772,0,0,1-3.376-1.206,3.911,3.911,0,0,1-1.3-2.991h0a3.911,3.911,0,0,1,1.3-2.991,4.772,4.772,0,0,1,3.376-1.206h0a4.892,4.892,0,0,1,3.376,1.158,3.712,3.712,0,0,1,1.3,2.894h0a4.1,4.1,0,0,1-1.3,3.111,4.717,4.717,0,0,1-3.376,1.23Zm26.529,3.232a10.679,10.679,0,0,1,7.79,2.894q2.966,2.894,2.966,8.586h0V6.48H59.455v-13.7A6.765,6.765,0,0,0,58.1-11.825,4.953,4.953,0,0,0,54.2-13.344h0a5.988,5.988,0,0,0-4.534,1.761A7.29,7.29,0,0,0,47.975-6.35h0V6.48H40.451V-19.47h7.187v3.039a9.978,9.978,0,0,1,3.714-2.532,12.94,12.94,0,0,1,4.872-.892Zm28.024,0q6.029,0,9.261,2.87T96.74-8.328h0V6.48H89.7V3.249q-2.122,3.618-7.91,3.618h0A12.277,12.277,0,0,1,76.6,5.853a7.732,7.732,0,0,1-3.352-2.8A7.281,7.281,0,0,1,72.092-1h0a6.761,6.761,0,0,1,2.725-5.692q2.725-2.074,8.417-2.074h5.981a4.8,4.8,0,0,0-1.5-3.786,6.586,6.586,0,0,0-4.486-1.326h0a13.1,13.1,0,0,0-4.076.651,10.783,10.783,0,0,0-3.4,1.761h0l-2.7-5.258a16.3,16.3,0,0,1,5.089-2.315,22.8,22.8,0,0,1,6.1-.82ZM83.668,1.8A6.553,6.553,0,0,0,87.093.909,4.883,4.883,0,0,0,89.215-1.72h0V-4.372H84.054q-4.63,0-4.63,3.039h0A2.706,2.706,0,0,0,80.557.957a5.106,5.106,0,0,0,3.111.844Zm35.645-21.657a10.679,10.679,0,0,1,7.79,2.894q2.966,2.894,2.966,8.586h0V6.48h-7.524v-13.7a6.765,6.765,0,0,0-1.351-4.606,4.953,4.953,0,0,0-3.907-1.519h0a5.988,5.988,0,0,0-4.534,1.761,7.29,7.29,0,0,0-1.688,5.233h0V6.48h-7.525V-19.47h7.187v3.039a9.979,9.979,0,0,1,3.714-2.532,12.94,12.94,0,0,1,4.872-.892ZM149.7,6.866a15.955,15.955,0,0,1-7.452-1.712A12.822,12.822,0,0,1,137.088.4a12.961,12.961,0,0,1-1.857-6.9h0a12.961,12.961,0,0,1,1.857-6.9,12.822,12.822,0,0,1,5.161-4.751,15.955,15.955,0,0,1,7.452-1.712h0a14.439,14.439,0,0,1,7.163,1.712,10.155,10.155,0,0,1,4.462,4.9h0l-5.836,3.135a6.379,6.379,0,0,0-5.836-3.569h0a6.6,6.6,0,0,0-4.872,1.929,7.1,7.1,0,0,0-1.929,5.258h0a7.1,7.1,0,0,0,1.929,5.258A6.6,6.6,0,0,0,149.653.692h0a6.313,6.313,0,0,0,5.836-3.569h0L161.325.306a10.359,10.359,0,0,1-4.462,4.823A14.278,14.278,0,0,1,149.7,6.866ZM190.748-6.4q0,.145-.145,2.026H170.972a6.114,6.114,0,0,0,2.508,3.81,8.308,8.308,0,0,0,4.92,1.4h0a9.962,9.962,0,0,0,3.593-.6,8.7,8.7,0,0,0,2.918-1.905h0l4,4.341q-3.666,4.2-10.708,4.2h0a16.939,16.939,0,0,1-7.766-1.712A12.552,12.552,0,0,1,165.232.4a13.091,13.091,0,0,1-1.833-6.9h0a13.261,13.261,0,0,1,1.809-6.873,12.672,12.672,0,0,1,4.968-4.775,14.587,14.587,0,0,1,7.066-1.712h0a14.47,14.47,0,0,1,6.9,1.64,11.97,11.97,0,0,1,4.848,4.7A14.023,14.023,0,0,1,190.748-6.4Zm-13.457-7.766A6.48,6.48,0,0,0,173-12.717a6.16,6.16,0,0,0-2.122,3.955h12.782a6.222,6.222,0,0,0-2.122-3.931,6.343,6.343,0,0,0-4.245-1.471Zm34.246-5.692a10.679,10.679,0,0,1,7.79,2.894q2.966,2.894,2.966,8.586h0V6.48h-7.524v-13.7a6.765,6.765,0,0,0-1.351-4.606,4.953,4.953,0,0,0-3.907-1.519h0a5.988,5.988,0,0,0-4.534,1.761,7.29,7.29,0,0,0-1.688,5.233h0V6.48h-7.525V-19.47h7.187v3.039a9.978,9.978,0,0,1,3.714-2.532,12.94,12.94,0,0,1,4.872-.892Z" transform="translate(-0.32 31.48)" fill="#e3e3e3"/>
          </g>
        </g>
      </g>
      <g id="Group_9" data-name="Group 9" transform="translate(630.421 607.183)">
        <g id="Group_8" data-name="Group 8">
          <rect id="Rectangle_2" data-name="Rectangle 2" width="1.421" height="82.019" fill="#e3e3e3" stroke="#e3e3e3" stroke-width="4"/>
        </g>
      </g>
    </g>
  </g>
</svg>
